PathFileType	4	(X/Y/Z)	RBDS028\RBDS028runT45.trc
DataRate	CameraRate	NumFrames	NumMarkers	Units	OrigDataRate	OrigDataStartFrame	OrigNumFrames
150.000000	150.000000	5	33	mm	150.000000	3937	4500
Frame#	Time	L.ASIS			L.Heel.Bottom			L.Heel.Lateral			L.Heel.Top			L.Iliac.Crest			L.MT1			L.MT5			L.PSIS			L.Shank.Bottom.Lateral			L.Shank.Bottom.Medial			L.Shank.Top.Lateral			L.Shank.Top.Medial			L.Thigh.Bottom.Lateral			L.Thigh.Bottom.Medial			L.Thigh.Top.Lateral			L.Thigh.Top.Medial			R.ASIS			R.ASY			R.Heel.Bottom			R.Heel.Lateral			R.Heel.Top			R.Iliac.Crest			R.MT1			R.MT5			R.PSIS			R.Shank.Bottom.Lateral			R.Shank.Bottom.Medial			R.Shank.Top.Lateral			R.Shank.Top.Medial			R.Thigh.Bottom.Lateral			R.Thigh.Bottom.Medial			R.Thigh.Top.Lateral			R.Thigh.Top.Medial			
		X1	Y1	Z1	X2	Y2	Z2	X3	Y3	Z3	X4	Y4	Z4	X5	Y5	Z5	X6	Y6	Z6	X7	Y7	Z7	X8	Y8	Z8	X9	Y9	Z9	X10	Y10	Z10	X11	Y11	Z11	X12	Y12	Z12	X13	Y13	Z13	X14	Y14	Z14	X15	Y15	Z15	X16	Y16	Z16	X17	Y17	Z17	X18	Y18	Z18	X19	Y19	Z19	X20	Y20	Z20	X21	Y21	Z21	X22	Y22	Z22	X23	Y23	Z23	X24	Y24	Z24	X25	Y25	Z25	X26	Y26	Z26	X27	Y27	Z27	X28	Y28	Z28	X29	Y29	Z29	X30	Y30	Z30	X31	Y31	Z31	X32	Y32	Z32	X33	Y33	Z33	

3938	26.24666666666667	1948.218636386548	852.23055155401	905.7527485392492	1903.856231421045	26.2066894504414	1010.405556545944	1930.335050969325	42.68792336064728	964.8464115576387	1917.137114043147	69.64377827126259	1011.378480944587	1878.189521976372	890.0781818762324	882.4910738285701	2129.570541049241	30.31682433365831	1034.082309190811	2081.164117337347	26.96351510957112	926.2823390969363	1803.686528227432	851.5699447269744	996.6021553543277	1989.613255912365	142.1972545784163	939.6356293940695	1953.556216249966	153.3061626561581	973.7320469474814	1988.557077190674	217.912553375101	911.3028160698788	1957.23510092732	234.2612095336807	950.9370099540469	2013.136358155834	527.4411408623937	858.789196482665	1962.41460157452	501.2221273618124	903.5480563043589	1959.644463929657	623.3361710954166	851.995234628864	1909.973703409725	597.4203538466351	893.0333444889848	1975.410001172667	847.8906997153313	1144.313709824643	1588.186115207099	329.1236635226205	1091.903957627502	1586.655191402033	514.4480419884075	1045.518697197706	1591.351723537338	489.0077776922539	1095.619752426774	1626.155943512585	493.002718331883	1054.415800853092	1927.671128754662	905.7401712578654	1167.475082091297	1540.085808058207	297.0072378895635	1042.232021125832	1529.103378242178	353.3713814857426	1141.507360967928	1817.897958616343	853.6061083283147	1087.171733945901	1687.771129404463	436.1161611224493	1135.402376380145	1698.467750602699	471.2141827345907	1093.70696224176	1763.494357819822	448.1074794428637	1162.50244858536	1773.289742235784	480.8021770251647	1120.796058148843	1962.022852840996	499.6806121203629	1213.269060969215	1912.231024765668	485.3679538545811	1164.362231153869	1934.068696166675	606.7110926116922	1211.013526462349	1883.821335223075	592.031051387352	1166.941039028702	
3939	26.25333333333333	1945.29173544826	848.6914367188671	904.1934772930977	1874.075131701986	26.49528118478764	1011.495443557722	1900.751052954422	43.89935507708709	966.358449282336	1887.866333186855	69.85832905043144	1013.636243455175	1875.616770869478	883.7648172828568	882.7801885804498	2100.03057457189	29.11030112348117	1035.579290017723	2051.083445041132	27.84862854278142	927.545053851631	1801.369463307155	847.8656142374956	997.9763959684419	1966.099612577117	140.5011682757563	941.4962120625324	1929.670755620658	154.1230826970094	974.4554521513797	1969.553005283799	215.7791591148824	911.8211814169325	1938.343625260705	234.5261252568369	950.6193595171552	2005.110264801478	522.4279246279411	857.906787000263	1954.344804226903	497.3270577721675	903.4153927849005	1953.27302001218	619.3744601200586	851.5012021769481	1903.677008164093	594.5633029660148	893.4424501352128	1974.363076343774	843.3281653676652	1143.406418678476	1610.730987586493	325.3951383658867	1090.45624714954	1604.740936151626	510.6886940288931	1045.887463857226	1610.317869024302	484.9028550359126	1095.471355850454	1644.729721262409	490.1068543108013	1054.396674598239	1926.840533059201	900.786607515916	1167.670330853695	1563.319951597005	292.5035468888879	1040.788963284289	1551.536768832806	347.6771483018425	1140.610836358741	1816.125284428226	849.5445291891884	1088.259224117613	1707.757722187607	433.0253910245306	1135.48959989235	1718.46747007155	468.664086898447	1094.277402144345	1783.243637118183	445.2042046204766	1163.290009259912	1793.103300766126	478.3830992736168	1121.985767892126	1976.204086521723	498.9047360239874	1215.30264263357	1926.641083611647	481.4243529769313	1167.316003283366	1942.80756068433	604.2382670286647	1212.239661188615	1892.857558412427	586.3688995771148	1169.186120103825	
3940	26.26	1942.460476443661	845.6500928511088	902.8089858343282	1844.261180705736	27.21227816369226	1011.968233456767	1871.193686344903	45.24336042911986	967.1856092142746	1858.402455637146	70.48866311005672	1014.887180318113	1872.644826268398	877.7720181656341	883.05902303942	2070.105674685558	29.02620324937734	1036.7940503318	2021.025773824136	29.025858050708	928.6196792778519	1799.00983020622	844.7842819614992	999.2032679792214	1941.988908359919	139.603017705941	942.6013823393756	1905.317856030317	155.5633102210035	974.4553549206789	1949.802729315618	214.2553172167928	911.8249353319607	1918.782264095184	235.2079216031547	949.8007878509155	1996.886913255436	517.8901886031881	857.0723588725521	1945.650668197867	493.9271596392485	902.7268471934145	1946.996670646431	615.9929041118817	850.9588707737619	1897.158549275442	592.3189165159544	893.3715466498729	1973.052390428864	839.0440216293555	1142.586388753457	1634.077081046212	319.8412506636795	1088.941082391663	1621.734230248154	504.8110104859492	1046.751610382323	1628.57499910347	478.6970971469456	1095.749622339843	1662.370221742472	485.5085333375175	1054.746857985771	1925.080090979071	896.1198701149611	1167.862267794924	1587.610288842485	285.8608180859064	1039.199658031818	1574.78326070742	339.4465570866975	1139.757501507372	1814.159504445875	846.0643942711785	1089.149576578417	1727.657402750064	428.8293991984801	1135.62181069475	1737.880349481996	465.1625723443807	1094.950289480591	1802.856030768923	441.8800763050305	1163.958997553471	1812.3035026666	475.6979518246833	1123.116666686003	1990.781801010352	499.395405290429	1216.919266280961	1941.498216087686	478.7196819992719	1170.033904748939	1951.794547338054	602.6839851870992	1213.243117241408	1902.166325793924	581.5745393950239	1171.461923962673	
3941	26.26666666666667	1939.86459703327	843.1677832699132	901.6258313359225	1814.445104052829	28.39147341027219	1011.987120399663	1841.655936411117	46.70859917055838	967.4477770588568	1828.842114492873	71.57255770272931	1015.288878413136	1869.287962404667	872.3497658313337	883.2992685455979	2039.938128644369	29.68206107561062	1037.66378692406	1990.982795440272	30.24526196321408	929.4485996696188	1796.71918266029	842.3863115494778	1000.181880766297	1917.294039247277	139.444297978964	943.0451400342339	1880.551970158042	157.5429380317995	973.8959086689824	1929.24225232151	213.3139817780066	911.4250767505526	1898.526160632094	236.2584440026979	948.6504840984461	1988.383659281825	513.8463121453623	856.2982076318052	1936.253213823431	491.0847193911617	901.5033267848719	1940.785743643223	613.2034721660817	850.3740457116371	1890.386085637278	590.7333610987621	892.8304317948651	1971.503138566383	835.2377737246255	1141.903920652673	1658.158168386051	312.6335124279951	1087.365059631124	1637.673631868579	496.8348851097254	1048.046356238156	1646.126913128249	470.4477144839998	1096.408514313953	1679.072202931636	479.2309474115256	1055.436616629476	1922.422430847066	891.8881366907668	1168.037291299572	1612.921435653398	277.2899689808751	1037.458553934903	1598.811912305104	328.8839504426061	1138.901158135196	1812.071325382987	843.2038983260339	1089.746459439328	1747.384908599973	423.6584009721396	1135.767734480685	1756.602635935078	460.7868063809863	1095.667352925136	1822.211018477587	438.2890298272228	1164.455844240244	1830.74857497183	472.8521344848192	1124.111455586419	2005.544287605724	501.2983693753139	1218.07111525169	1956.679414219552	477.4351186477542	1172.347625687261	1960.890227516103	602.1956874875576	1213.959952108674	1911.684636658488	577.834207964459	1173.588160443806	
3942	26.27333333333333	1937.642941457326	841.2570700558379	900.6552811380408	1784.628188151302	30.07610651243415	1011.741140439216	1812.109715280493	48.33246019192679	967.3095204646025	1799.254210235952	73.1555002727732	1015.063849350694	1865.628104719996	867.7219802219108	883.4782864469042	2009.625093849839	30.72459977025714	1038.183282559664	1960.914501937382	31.3373652112253	930.0236166584882	1794.612714503012	840.6873299577121	1000.816848873358	1892.02588746329	139.9732278239143	942.9862763000733	1855.411856182972	159.9961428510063	972.9933115068305	1907.821269619079	212.9424158146536	910.7722049941442	1877.554516053885	237.6541060551557	947.367402837241	1979.481521697286	510.295542289213	855.5990603878394	1926.079910479148	488.8553623346169	899.8266156355564	1934.571922926762	610.9922102611965	849.7613915151003	1883.321025746302	589.8383519301619	891.8792304541906	1969.757223872364	832.0875199009546	1141.400577497602	1682.94163852658	303.952748454335	1085.758276209859	1652.684514844952	486.7718306644209	1049.66643336478	1663.048367168827	460.2137975231416	1097.364928934851	1694.909439034018	471.2813531163014	1056.403429753727	1918.999029880732	888.2347590241525	1168.173111026914	1639.256854010914	267.0136607794834	1035.600457746308	1623.624304156651	316.2277876850661	1138.013923640837	1809.945034659519	840.972561605798	1089.968758402066	1766.888775874397	417.6265287640759	1135.89057750702	1774.585552855851	455.5797833786598	1096.3593546994	1841.202701407146	434.5493014732365	1164.729555882918	1848.331445814545	469.8965486634218	1124.889730121269	2020.235968218028	504.6943686255223	1218.727218389333	1972.003756961151	477.6989363188015	1174.108953053404	1969.928635974853	602.8691904159027	1214.341265470843	1921.31721994031	575.2950368021316	1175.392542516285	
